<?xml version="1.0" encoding="UTF-8"?>
<svg version="1.1" xmlns="http://www.w3.org/2000/svg" width="600" height="600">
<path d="M0 0 C198 0 396 0 600 0 C600 198 600 396 600 600 C402 600 204 600 0 600 C0 402 0 204 0 0 Z " fill="#FDFEFD" transform="translate(0,0)"/>
<path d="M0 0 C198 0 396 0 600 0 C600 198 600 396 600 600 C402 600 204 600 0 600 C0 402 0 204 0 0 Z M293.23046875 32.8125 C291.5453418 33.79669922 291.5453418 33.79669922 289.82617188 34.80078125 C288.61312322 35.53359264 287.40023672 36.26667251 286.1875 37 C284.92485727 37.74523601 283.66117019 38.48870521 282.39648438 39.23046875 C279.81897411 40.7457703 277.24757489 42.27068316 274.68115234 43.8046875 C270.43256718 46.34295009 266.15786405 48.83545755 261.88012695 51.32421875 C259.94627161 52.44941864 258.01383407 53.57705851 256.08276367 54.70703125 C247.82541689 59.53807326 239.52093941 64.28441566 231.20898438 69.02050781 C223.11255867 73.63502804 215.04193491 78.29095255 207 83 C197.77199471 88.4035646 188.5000533 93.72652361 179.20898438 99.02050781 C171.11255867 103.63502804 163.04193491 108.29095255 155 113 C146.36502228 118.05631048 137.69385765 123.04593006 129 128 C117.30175235 134.66741781 105.65595801 141.42101654 94.03662109 148.22509766 C90.76315279 150.13843698 87.48551508 152.04448712 84.20703125 153.94921875 C83.09553711 154.59552246 81.98404297 155.24182617 80.83886719 155.90771484 C78.69302764 157.15524392 76.54656616 158.40170399 74.39941406 159.64697266 C73.44389648 160.20304199 72.48837891 160.75911133 71.50390625 161.33203125 C70.23268921 162.07030151 70.23268921 162.07030151 68.93579102 162.82348633 C67.06554585 163.85545122 67.06554585 163.85545122 66 165 C65.89532617 166.4380345 65.85975619 167.88116086 65.85181236 169.32297802 C65.84427102 170.26178568 65.83672969 171.20059334 65.82895982 172.16784972 C65.82573359 173.2114002 65.82250735 174.25495068 65.81918335 175.3301239 C65.81197883 176.42930407 65.80477432 177.52848424 65.79735148 178.66097289 C65.77447847 182.37512707 65.75901089 186.08927445 65.74365234 189.8034668 C65.73288909 191.7791716 65.72212025 193.75487642 65.71087985 195.73057856 C65.56978888 220.6141289 65.50446199 245.49826884 65.45155907 270.38214397 C65.44454984 273.62219456 65.4374229 276.86224486 65.43017578 280.10229492 C65.42838049 280.90762155 65.4265852 281.71294817 65.4247355 282.54267863 C65.39466944 295.58821652 65.32990596 308.63335168 65.25148933 321.67867889 C65.17168799 335.06485814 65.12588166 348.45082876 65.11253321 361.83724147 C65.10411961 369.35623984 65.08031823 376.87452466 65.01786423 384.39328575 C64.96470069 390.79717316 64.94189226 397.20024682 64.95897441 403.60434856 C64.96673115 406.8726272 64.95496163 410.13878584 64.91369247 413.40686417 C64.87125389 416.95100332 64.8841009 420.49076578 64.91098022 424.03495789 C64.88544677 425.06735476 64.85991332 426.09975163 64.83360612 427.16343325 C64.91789412 432.63056846 64.91789412 432.63056846 67.97321343 436.9461838 C70.25774484 438.49056579 72.53074368 439.77789516 75 441 C76.45321655 441.86334961 76.45321655 441.86334961 77.93579102 442.74414062 C79.20700806 443.44313477 79.20700806 443.44313477 80.50390625 444.15625 C81.47900146 444.69628662 82.45409668 445.23632324 83.45874023 445.79272461 C84.99510132 446.63782593 84.99510132 446.63782593 86.5625 447.5 C95.07435918 452.22405984 103.53876112 457.01501639 111.9375 461.9375 C120.23387296 466.79924676 128.54343137 471.63626762 136.875 476.4375 C137.95515381 477.06003662 139.03530762 477.68257324 140.14819336 478.32397461 C142.33796334 479.58576826 144.52782355 480.84740534 146.71777344 482.10888672 C152.14659942 485.23680148 157.57319281 488.36858448 163 491.5 C165.16665583 492.75001879 167.3333225 494.00001878 169.5 495.25 C202 514 202 514 234.5 532.75 C235.57306396 533.36907227 236.64612793 533.98814453 237.75170898 534.62597656 C239.91268988 535.87270256 242.07365998 537.11944727 244.23461914 538.36621094 C249.73818851 541.54145883 255.24196032 544.71635495 260.74609375 547.890625 C261.85637939 548.53136963 262.96666504 549.17211426 264.1105957 549.83227539 C266.30438759 551.09684098 268.49950973 552.35910201 270.69604492 553.61889648 C275.72716115 556.50852173 280.73111618 559.42787942 285.6796875 562.45703125 C286.55181885 562.98393555 287.4239502 563.51083984 288.32250977 564.05371094 C289.93384529 565.03008642 291.53662954 566.02077699 293.12866211 567.02832031 C294.18839233 567.66592285 294.18839233 567.66592285 295.26953125 568.31640625 C295.87385986 568.69224854 296.47818848 569.06809082 297.10083008 569.45532227 C300.71483945 570.49181216 303.58207792 568.2235432 306.7253418 566.54223633 C308.19741089 565.69568481 308.19741089 565.69568481 309.69921875 564.83203125 C310.81248535 564.19386475 311.92575195 563.55569824 313.07275391 562.89819336 C314.27771682 562.20304466 315.4826309 561.5078113 316.6875 560.8125 C317.94434799 560.09031382 319.20134912 559.3683941 320.45849609 558.64672852 C323.68637148 556.79256933 326.91189349 554.93436047 330.13653564 553.07458496 C332.99525204 551.42607817 335.85518454 549.77968312 338.71484375 548.1328125 C344.07278109 545.04520824 349.42792501 541.95279067 354.78222656 538.85888672 C360.18670645 535.73675395 365.59347412 532.61858796 371 529.5 C373.1666775 528.25001878 375.33334417 527.00001879 377.5 525.75 C468.5 473.25 468.5 473.25 471.75146484 471.37426758 C473.91337884 470.12693452 476.07516317 468.8793767 478.23681641 467.6315918 C483.72514585 464.46391168 489.21582533 461.30043239 494.7109375 458.14453125 C496.38542969 457.18160156 496.38542969 457.18160156 498.09375 456.19921875 C500.16839925 455.00629543 502.24382112 453.81471389 504.3203125 452.625 C506.28930084 451.49205036 508.24297046 450.33205273 510.18024635 449.14569187 C513.01720288 447.46995157 515.90145008 446.17427848 518.93979454 444.90361691 C528.69535778 440.54070324 528.69535778 440.54070324 535.17308474 432.44812131 C537.10055171 424.78467416 536.74482497 416.90252554 536.61962891 409.05883789 C536.65003825 406.41760282 536.68819746 403.77749294 536.73556519 401.13661194 C536.83184408 394.72758385 536.82057721 388.32315698 536.7693624 381.91378004 C536.72953321 376.70162199 536.72833132 371.4907676 536.75419235 366.27853203 C536.75783446 365.53456377 536.76147657 364.79059551 536.76522904 364.02408276 C536.77276875 362.5123453 536.78038444 361.00060821 536.78807525 359.48887151 C536.85533458 345.33709672 536.79881994 331.18788076 536.7004997 317.03642308 C536.61933256 304.9154033 536.64887762 292.79872055 536.75830078 280.67797852 C536.88558266 266.57595465 536.94035356 252.47657504 536.88335359 238.3740043 C536.87748641 236.86776452 536.87172472 235.36152433 536.86606979 233.85528374 C536.86186366 232.74387274 536.86186366 232.74387274 536.85757256 231.610009 C536.84293289 226.40947396 536.87981847 221.21079547 536.93736649 216.01060677 C537.00635506 209.66346663 536.99628448 203.32218775 536.88729425 196.97551591 C536.83370719 193.73956242 536.82617646 190.51556487 536.89168549 187.27953339 C537.50306615 174.04283533 537.50306615 174.04283533 531.8191905 162.70287395 C526.50791303 158.60122231 520.73111105 155.74110436 514.57687259 153.12408054 C511.22192453 151.66058877 508.19905114 149.88385834 505.078125 147.9765625 C503.13611511 146.85816133 501.19341594 145.74095612 499.25 144.625 C497.04685608 143.35680371 494.84373165 142.08857355 492.640625 140.8203125 C491.54298828 140.18899414 490.44535156 139.55767578 489.31445312 138.90722656 C483.87349435 135.77635076 478.43694752 132.63783458 473 129.5 C470.83335502 128.24996242 468.66668834 126.99996244 466.5 125.75 C349.5 58.25 349.5 58.25 346.24487305 56.37182617 C344.09554585 55.13197277 341.94597219 53.8925465 339.79614258 52.65356445 C334.72165511 49.72836237 329.64978383 46.79888277 324.5866394 43.85409546 C322.19684332 42.4645137 319.80563164 41.07737828 317.41430664 39.69042969 C315.72859411 38.71136747 314.04493413 37.72877394 312.36132812 36.74609375 C311.33845703 36.153125 310.31558594 35.56015625 309.26171875 34.94921875 C308.36412842 34.42674561 307.46653809 33.90427246 306.54174805 33.3659668 C305.70297119 32.91519775 304.86419434 32.46442871 304 32 C303.18547363 31.55116455 302.37094727 31.1023291 301.53173828 30.63989258 C297.88286309 29.71764553 296.4222448 30.91279959 293.23046875 32.8125 Z " fill="#FEFEFE" transform="translate(0,0)"/>
<path d="M0 0 C1.24885986 0.67325317 1.24885986 0.67325317 2.52294922 1.36010742 C3.42231201 1.84116943 4.3216748 2.32223145 5.24829102 2.81787109 C6.22967041 3.38223877 7.2110498 3.94660645 8.22216797 4.52807617 C9.33543457 5.16624268 10.44870117 5.80440918 11.59570312 6.46191406 C12.80066604 7.15706276 14.00558012 7.85229612 15.21044922 8.54760742 C16.46729721 9.2697936 17.72429833 9.99171332 18.98144531 10.71337891 C22.2093207 12.56753809 25.43484271 14.42574695 28.65948486 16.28552246 C31.51820126 17.93402926 34.37813376 19.5804243 37.23779297 21.22729492 C42.59573031 24.31489918 47.95087423 27.40731675 53.30517578 30.5012207 C58.70965567 33.62335347 64.11642334 36.74151946 69.52294922 39.86010742 C71.68962672 41.11008864 73.85629339 42.36008863 76.02294922 43.61010742 C77.63169922 44.53823242 77.63169922 44.53823242 79.27294922 45.48510742 C108.52294922 62.36010742 137.77294922 79.23510742 167.02294922 96.11010742 C168.63242432 97.03859497 168.63242432 97.03859497 170.27441406 97.98583984 C172.43632805 99.23317291 174.59811239 100.48073072 176.75976562 101.72851562 C182.24809506 104.89619574 187.73877454 108.05967503 193.23388672 111.21557617 C194.90837891 112.17850586 194.90837891 112.17850586 196.61669922 113.16088867 C198.69134847 114.35381199 200.76677034 115.54539353 202.84326172 116.73510742 C204.81217884 117.86801608 206.76570832 119.02809658 208.70276165 120.21466351 C211.5409263 121.89121777 214.42609625 123.1851548 217.46664906 124.45425892 C230.74477962 130.45534548 230.74477962 130.45534548 233.68730712 136.91697288 C235.58592075 144.60517675 235.19150003 152.50491776 235.03149414 160.36474609 C235.05043002 163.0124465 235.07717995 165.65902827 235.11335754 168.30644226 C235.18275506 174.73047845 235.14546937 181.14957683 235.06997963 187.57337423 C234.98535377 195.06163488 235.00176878 202.54868707 235.02045003 210.03727845 C235.0497917 223.40166053 234.97919059 236.76368157 234.85571289 250.12744141 C234.7360445 263.08048915 234.70072126 276.03038533 234.75317383 288.98388672 C234.81027496 303.11056761 234.81981223 317.23579351 234.74768335 331.3624571 C234.74005459 332.86974881 234.73245281 334.37704067 234.72487831 335.88433266 C234.7191947 336.99658792 234.7191947 336.99658792 234.71339628 338.13131299 C234.68972804 343.34523638 234.6989046 348.55850769 234.72020531 353.77242088 C234.74489055 360.12903048 234.71471216 366.48266707 234.61573382 372.83859702 C234.56649431 376.079882 234.54876076 379.31574921 234.58019638 382.55739594 C234.74087284 401.50347638 234.74087284 401.50347638 231.05626321 406.24916291 C227.56162831 409.29093104 223.72889437 411.07856235 219.39969981 412.6360966 C216.49877183 413.75521348 213.9288727 415.37252804 211.28466797 416.99291992 C209.26069615 418.15831684 207.23593871 419.32235026 205.21044922 420.48510742 C202.94350146 421.78975899 200.67657498 423.09444755 198.40966797 424.39916992 C197.26804199 425.055625 196.12641602 425.71208008 194.95019531 426.38842773 C189.47139125 429.54035975 183.99733809 432.70051539 178.52294922 435.86010742 C176.35630696 437.11014973 174.18964025 438.36014966 172.02294922 439.61010742 C170.95044922 440.22885742 169.87794922 440.84760742 168.77294922 441.48510742 C55.02294921 507.11010743 55.02294921 507.11010743 51.76904297 508.98730469 C49.61533202 510.22986761 47.46168555 511.47254231 45.30810547 512.71533203 C40.2861066 515.61325365 35.26352115 518.51014091 30.23852539 521.40286255 C28.472494 522.41957941 26.70667491 523.436664 24.94091797 524.45385742 C22.73560767 525.72411615 20.52990706 526.9936976 18.32373047 528.26245117 C17.31697266 528.8425293 16.31021484 529.42260742 15.27294922 530.02026367 C13.82275391 530.8480835 13.82275391 530.8480835 12.34326172 531.69262695 C10.45328376 532.81005679 8.59293303 533.97907535 6.76513672 535.19555664 C0.30397074 539.44955939 0.30397074 539.44955939 -3.64892578 538.99682617 C-4.58220703 538.45670898 -5.51548828 537.9165918 -6.47705078 537.36010742 C-7.59595703 536.74780273 -8.71486328 536.13549805 -9.86767578 535.50463867 C-11.15724063 534.73245938 -12.44347893 533.95470821 -13.72705078 533.17260742 C-15.24323993 532.26512337 -16.76021966 531.35895937 -18.27783203 530.45385742 C-19.10621582 529.95885742 -19.93459961 529.46385742 -20.78808594 528.95385742 C-25.80372943 525.98108452 -30.86123305 523.0807127 -35.91455078 520.17260742 C-37.57309082 519.21704956 -37.57309082 519.21704956 -39.26513672 518.2421875 C-41.5372916 516.93310086 -43.80959087 515.6242648 -46.08203125 514.31567383 C-51.54875058 511.16678689 -57.01279965 508.01327478 -62.47705078 504.86010742 C-64.64370389 503.61008392 -66.81037058 502.36008395 -68.97705078 501.11010742 C-127.47705078 467.36010742 -127.47705078 467.36010742 -185.97705078 433.61010742 C-187.05132324 432.99039062 -188.1255957 432.37067383 -189.23242188 431.73217773 C-191.38138035 430.49228205 -193.53014601 429.25205213 -195.67871094 428.01147461 C-200.75429844 425.08138169 -205.83178813 422.15474333 -210.91619873 419.23999023 C-213.31745308 417.86314216 -215.71760604 416.4843805 -218.11767578 415.10546875 C-219.81191681 414.13314039 -221.50774659 413.16358202 -223.20361328 412.1940918 C-224.22970703 411.6043457 -225.25580078 411.01459961 -226.31298828 410.40698242 C-227.21581543 409.88974609 -228.11864258 409.37250977 -229.04882812 408.83959961 C-233.54303924 406.10132097 -233.54303924 406.10132097 -235.47705078 404.36010742 C-235.98420078 402.26316804 -235.98420078 402.26316804 -235.9943819 399.79103374 C-236.00789639 398.84824399 -236.02141087 397.90545423 -236.03533489 396.93409508 C-236.0298226 395.89637029 -236.02431031 394.85864549 -236.01863098 393.78947449 C-236.02839877 392.68858547 -236.03816656 391.58769645 -236.04823035 390.45344716 C-236.07600751 386.7453382 -236.07495616 383.03779481 -236.07397461 379.32958984 C-236.08757291 376.67879464 -236.1026977 374.02804611 -236.11955261 371.37727356 C-236.1566664 364.91261213 -236.17134535 358.44808628 -236.17702714 351.98332759 C-236.18165785 346.72885147 -236.19223388 341.47442215 -236.20700645 336.21996498 C-236.24799663 321.32693147 -236.27105642 306.43401208 -236.27288155 291.54092225 C-236.27298444 290.73770599 -236.27308734 289.93448974 -236.27319336 289.10693359 C-236.27329215 288.30273797 -236.27339093 287.49854235 -236.27349272 286.66997717 C-236.27622192 273.6374586 -236.32238081 260.60549721 -236.38796798 247.57315751 C-236.45475596 234.19591224 -236.48795477 220.81894142 -236.48652858 207.44152528 C-236.48644922 199.92932034 -236.50047032 192.41774256 -236.55088234 184.90569115 C-236.5935776 178.50910981 -236.60526301 172.1134084 -236.57661597 165.71673246 C-236.56290022 162.45253573 -236.56859072 159.19041419 -236.60373306 155.92632675 C-236.63946178 152.38659076 -236.61991407 148.85134827 -236.58625793 145.31169128 C-236.60974503 144.28065865 -236.63323212 143.24962602 -236.65743095 142.18734998 C-236.511628 135.38853703 -236.511628 135.38853703 -233.53905618 132.43362868 C-231.24336982 130.8774268 -228.95943765 129.59209744 -226.47705078 128.36010742 C-225.14999524 127.60465233 -223.82524517 126.8451096 -222.50439453 126.07885742 C-221.14276343 125.33624041 -219.77940187 124.5967897 -218.41455078 123.86010742 C-211.24229249 119.93103623 -204.15608982 115.87245542 -197.10205078 111.73510742 C-188.25969744 106.55187963 -179.38291519 101.43308361 -170.47705078 96.36010742 C-161.78286337 91.40662537 -153.11201959 86.41641269 -144.47705078 81.36010742 C-135.24904549 75.95654283 -125.97710408 70.63358381 -116.68603516 65.33959961 C-108.58960945 60.72507939 -100.51898569 56.06915487 -92.47705078 51.36010742 C-83.84207521 46.3037982 -75.17098759 41.3140362 -66.47705078 36.36010742 C-57.74300168 31.38282281 -49.03116488 26.37033165 -40.35205078 21.29760742 C-39.39645264 20.74202148 -38.44085449 20.18643555 -37.45629883 19.61401367 C-32.680721 16.83456413 -27.9211517 14.03270612 -23.19195557 11.17518616 C-20.81006418 9.7396308 -18.41976437 8.31846267 -16.02813721 6.89920044 C-14.32412516 5.88077133 -12.63163136 4.84314868 -10.93945312 3.80517578 C-9.38991943 2.88877319 -9.38991943 2.88877319 -7.80908203 1.95385742 C-6.89876221 1.40407227 -5.98844238 0.85428711 -5.05053711 0.2878418 C-2.47705078 -0.63989258 -2.47705078 -0.63989258 0 0 Z M-8.49267578 25.93041992 C-9.48372314 26.48971191 -10.47477051 27.04900391 -11.49584961 27.62524414 C-12.562146 28.23899902 -13.62844238 28.85275391 -14.72705078 29.48510742 C-15.84168701 30.11819824 -16.95632324 30.75128906 -18.10473633 31.40356445 C-26.51900576 36.19663042 -34.88814573 41.06805798 -43.24169922 45.96606445 C-50.95509534 50.48706214 -58.70850818 54.9349194 -66.47705078 59.36010742 C-75.17123145 64.31360133 -83.84208182 69.30380207 -92.47705078 74.36010742 C-101.70505607 79.76367202 -110.97699748 85.08663103 -120.26806641 90.38061523 C-128.36449211 94.99513546 -136.43511587 99.65105998 -144.47705078 104.36010742 C-153.69804711 109.75956784 -162.9628263 115.07870327 -172.24691772 120.36853027 C-183.51843764 126.79244357 -194.73303334 133.31072758 -205.92358398 139.87475586 C-209.09770679 141.721143 -212.28878901 143.53824355 -215.47705078 145.36010742 C-215.47705078 227.20010742 -215.47705078 309.04010742 -215.47705078 393.36010742 C-206.23705078 398.64010742 -196.99705078 403.92010742 -187.47705078 409.36010742 C-175.47705078 416.36010742 -175.47705078 416.36010742 -169.60205078 419.79760742 C-162.91894986 423.69608296 -156.19933062 427.52980075 -149.47705078 431.36010742 C-139.80223859 436.87274577 -130.16422941 442.44435309 -120.55517578 448.07104492 C-112.89131308 452.55176888 -105.19026243 456.96517494 -97.47705078 461.36010742 C-87.80223859 466.87274577 -78.16422941 472.44435309 -68.55517578 478.07104492 C-60.89131147 482.55176982 -53.19020964 486.9650801 -45.47705078 491.36010742 C-9.71496498 511.73923039 -9.71496498 511.73923039 -4.99243164 515.15966797 C-2.54205236 516.65791079 -2.54205236 516.65791079 0.0065918 515.73193359 C0.83698975 515.27923096 1.6673877 514.82652832 2.52294922 514.36010742 C3.36172607 513.90933838 4.20050293 513.45856934 5.06469727 512.99414062 C5.9622876 512.47166748 6.85987793 511.94919434 7.78466797 511.41088867 C9.31897461 510.52143555 9.31897461 510.52143555 10.88427734 509.61401367 C11.98191406 508.97334961 13.07955078 508.33268555 14.21044922 507.67260742 C15.37235269 506.99777362 16.53446593 506.32330086 17.69677734 505.64916992 C20.11018962 504.24903653 22.52269382 502.84735723 24.93457031 501.44458008 C30.45561992 498.23519474 35.98996523 495.04885679 41.52294922 491.86010742 C43.68967831 490.61021562 45.85634478 489.36021527 48.02294922 488.11010742 C87.02294922 465.61010742 126.02294922 443.11010742 165.02294922 420.61010742 C166.09738281 419.99022949 167.17181641 419.37035156 168.27880859 418.73168945 C170.42590058 417.4930074 172.57303536 416.25439952 174.72021484 415.01586914 C179.81883731 412.07477392 184.91700218 409.13289329 190.01367188 406.18841553 C192.43342587 404.79052142 194.85342185 403.39304653 197.2734375 401.99560547 C198.99095974 401.00358418 200.70812973 400.01095313 202.42529297 399.01831055 C203.97410156 398.12402344 203.97410156 398.12402344 205.55419922 397.21166992 C206.4675 396.68395996 207.38080078 396.15625 208.32177734 395.61254883 C209.70283613 394.82674231 211.10173417 394.07071495 212.52294922 393.36010742 C212.52294922 311.52010742 212.52294922 229.68010742 212.52294922 145.36010742 C204.27294922 140.74010742 196.02294922 136.12010742 187.52294922 131.36010742 C174.8452024 123.98152462 174.8452024 123.98152462 169.75341797 120.99291992 C163.03833865 117.0653332 156.28242293 113.21050042 149.52294922 109.36010742 C139.84795312 103.84779567 130.21012345 98.27585918 120.60107422 92.64916992 C112.93721152 88.16844596 105.23616086 83.7550399 97.52294922 79.36010742 C87.84813703 73.84746907 78.21012785 68.27586175 68.60107422 62.64916992 C60.35100499 57.82571675 52.05633021 53.08265319 43.75308228 48.35168457 C33.2858983 42.38618189 22.86899723 36.33810888 12.47216797 30.25073242 C11.61800293 29.75379883 10.76383789 29.25686523 9.88378906 28.74487305 C8.39645807 27.87246959 6.91640436 26.98741978 5.44726562 26.0847168 C-0.02175934 22.77402159 -3.01695457 22.81283391 -8.49267578 25.93041992 Z " fill="#128B4C" transform="translate(301.47705078125,30.639892578125)"/>
<path d="M0 0 C3.36446708 1.21221833 5.93284027 3.56695144 8.67407227 5.80078125 C9.30087891 6.30246826 9.92768555 6.80415527 10.57348633 7.32104492 C12.40361963 8.78744978 14.22702537 10.26184898 16.04907227 11.73828125 C17.63155029 13.01017948 19.21478206 14.28114101 20.79907227 15.55078125 C21.58411133 16.18113281 22.36915039 16.81148438 23.17797852 17.4609375 C27.78946896 21.11875917 32.4490668 24.71459634 37.10058594 28.32128906 C42.58693557 32.58246545 48.01852457 36.90605976 53.42797852 41.26416016 C58.13791961 45.04391299 62.9256292 48.7133058 67.73657227 52.36328125 C73.68224719 56.87599856 79.45457084 61.52427595 85.15844727 66.33984375 C88.2395105 68.89629352 91.37716346 71.35908255 94.54907227 73.80078125 C95.34945923 74.43246216 95.34945923 74.43246216 96.16601562 75.0769043 C98.86742458 77.1848126 101.54154937 79.06613313 104.53735352 80.734375 C107.86157227 82.73828125 107.86157227 82.73828125 113.04907227 87.73828125 C113.04907227 93.67828125 113.04907227 99.61828125 113.04907227 105.73828125 C75.42907227 105.73828125 37.80907227 105.73828125 -0.95092773 105.73828125 C-0.95092773 143.35828125 -0.95092773 180.97828125 -0.95092773 219.73828125 C-36.26092773 219.73828125 -71.57092773 219.73828125 -107.95092773 219.73828125 C-107.95092773 182.44828125 -107.95092773 145.15828125 -107.95092773 106.73828125 C-116.86092773 106.73828125 -125.77092773 106.73828125 -134.95092773 106.73828125 C-134.95092773 106.07828125 -134.95092773 105.41828125 -134.95092773 104.73828125 C-132.94574721 103.01041292 -130.93195489 101.39799932 -128.82592773 99.80078125 C-127.53153095 98.80224659 -126.23726362 97.80354409 -124.94311523 96.8046875 C-124.27763672 96.29437988 -123.6121582 95.78407227 -122.92651367 95.25830078 C-119.91595932 92.9419746 -116.93403375 90.58977536 -113.95092773 88.23828125 C-112.78441951 87.32141296 -111.61775224 86.404747 -110.45092773 85.48828125 C-109.58467773 84.80765625 -109.58467773 84.80765625 -108.70092773 84.11328125 C-103.45092773 79.98828125 -103.45092773 79.98828125 -101.70117188 78.61352539 C-100.53362364 77.69613116 -99.36614325 76.77865058 -98.19873047 75.86108398 C-95.29609983 73.5798388 -92.392335 71.30006911 -89.48608398 69.0234375 C-83.44961844 64.29215369 -77.43468841 59.53609917 -71.45092773 54.73828125 C-64.89529773 49.48193482 -58.29954278 44.27886065 -51.68481445 39.09716797 C-48.77125956 36.8137483 -45.86124358 34.5258268 -42.95092773 32.23828125 C-39.46436617 29.49779917 -35.97714627 26.75818503 -32.48608398 24.0234375 C-25.0319936 18.18109898 -17.6173238 12.29157893 -10.22827148 6.3671875 C-9.66736816 5.92262207 -9.10646484 5.47805664 -8.52856445 5.02001953 C-7.06992027 3.83495578 -5.66557106 2.5838925 -4.26733398 1.328125 C-1.95092773 -0.26171875 -1.95092773 -0.26171875 0 0 Z " fill="#48B14C" transform="translate(353.950927734375,247.26171875)"/>
<path d="M0 0 C35.64 0 71.28 0 108 0 C108.226875 15.84 108.45375 31.68 108.6875 48 C108.78764404 52.99125 108.88778809 57.9825 108.9909668 63.125 C109.04064941 69.24609375 109.04064941 69.24609375 109.04988098 72.11669922 C109.06671298 74.11078936 109.10528228 76.10477118 109.16133118 78.09814453 C109.61130369 94.95198958 109.61130369 94.95198958 105.62268066 100.02163696 C102.82458633 102.07192856 100.13343212 103.53398914 97 105 C95.59572641 106.04980247 94.21543572 107.13405833 92.8828125 108.2734375 C92.26325684 108.78277832 91.64370117 109.29211914 91.00537109 109.81689453 C90.38484863 110.33106934 89.76432617 110.84524414 89.125 111.375 C83.23080633 116.21101024 77.26247949 120.92027428 71.203125 125.546875 C62.23132112 132.39987649 53.41579149 139.45505065 44.6081543 146.5168457 C38.68128303 151.26494262 32.71215367 155.95799697 26.73388672 160.64111328 C23.82033183 162.92453295 20.91031584 165.21245445 18 167.5 C14.51343843 170.24048208 11.02621854 172.98009622 7.53515625 175.71484375 C2.18286941 179.91014421 -3.15686726 184.11846327 -8.45556641 188.38134766 C-15.05962716 193.69342282 -21.73197337 198.90269453 -28.48754883 204.02099609 C-29.13232178 204.51035645 -29.77709473 204.9997168 -30.44140625 205.50390625 C-31.16070312 206.02057861 -31.88 206.53725098 -32.62109375 207.06958008 C-35.15002447 209.01222799 -35.15002447 209.01222799 -37.48828125 211.8269043 C-43.57887189 218.31944133 -49.19540128 220.55508759 -58.13885212 220.97790337 C-66.05658317 221.21117876 -73.95931388 220.93415826 -81.875 220.6875 C-92.14625 220.460625 -102.4175 220.23375 -113 220 C-113 184.69 -113 149.38 -113 113 C-75.71 113 -38.42 113 0 113 C0 75.71 0 38.42 0 0 Z " fill="#128A4B" transform="translate(246,133)"/>
<path d="M0 0 C1.81370444 1.00303352 3.62573654 2.00908975 5.4375 3.015625 C8.16026224 2.3968154 9.79610067 1.41946902 12.125 -0.046875 C17.80471479 -2.34946208 26.11806977 -1.92479551 31.98828125 -0.26171875 C33.96439204 0.68604701 35.66485754 1.73067126 37.4375 3.015625 C38.489375 3.716875 39.54125 4.418125 40.625 5.140625 C45.28764872 9.34339603 47.96357627 14.85063867 48.88671875 21.015625 C49.20138921 29.52257823 46.92911199 35.31380148 42.25 42.265625 C36.08105085 48.29748639 30.96193734 50.45388765 22.25 50.515625 C21.57283936 50.52190918 20.89567871 50.52819336 20.19799805 50.53466797 C15.55143602 50.41729313 12.48120018 49.19210432 8.4375 47.015625 C5.45300717 47.19469457 3.31055959 47.48978221 0.73828125 49.0390625 C-5.28208745 51.59439726 -14.18409293 51.01474126 -20.40234375 49.17578125 C-27.1838856 45.73284462 -30.73568004 40.18211294 -34.4375 33.765625 C-36.44358227 27.07868409 -36.8908786 20.00256729 -33.8125 13.578125 C-33.0917125 12.37267005 -32.34410438 11.18256581 -31.5625 10.015625 C-31.02625 9.149375 -30.49 8.283125 -29.9375 7.390625 C-21.81759377 -0.72928123 -11.22686901 -4.31276066 0 0 Z " fill="#F2F9F2" transform="translate(351.5625,290.984375)"/>
<path d="M0 0 C29.7 0 59.4 0 90 0 C90 23.43 90 46.86 90 71 C85.01546567 68.15169467 81.07000901 65.58802925 76.875 61.875 C72.53130872 58.11638763 68.13416223 54.47825674 63.5625 51 C63.02786133 50.59297852 62.49322266 50.18595703 61.94238281 49.76660156 C60.84956432 48.93506663 59.75662733 48.10368743 58.66357422 47.27246094 C50.21345323 40.80899886 41.91566847 34.14551085 33.61694336 27.48974609 C29.32635041 24.05169591 25.01445448 20.64214783 20.6875 17.25 C11.85585334 10.31966202 11.85585334 10.31966202 8.375 7.5625 C7.61960937 6.96566406 6.86421875 6.36882812 6.0859375 5.75390625 C3.94912912 3.95722654 1.97408308 1.97408308 0 0 Z " fill="#128B4B" transform="translate(377,247)"/>
<path d="M0 0 C1.9140625 1.10546875 1.9140625 1.10546875 4.7890625 3.10546875 C4.5209375 3.62109375 4.2528125 4.13671875 3.9765625 4.66796875 C3.5846875 5.47234375 3.1928125 6.27671875 2.7890625 7.10546875 C2.2528125 8.09546875 1.7165625 9.08546875 1.1640625 10.10546875 C-1.20558106 15.71523718 -1.20038549 22.49652064 0.3984375 28.328125 C1.56972112 31.14279126 3.09927058 33.57078087 4.7890625 36.10546875 C4.7890625 37.09546875 4.7890625 38.08546875 4.7890625 39.10546875 C-1.96269217 42.55317326 -7.98800962 43.29421323 -15.3359375 41.10546875 C-20.78814399 38.82644644 -24.30895219 34.13973964 -27.37890625 29.2421875 C-29.45133461 23.92003579 -29.23043257 17.04066619 -27.37109375 11.6875 C-21.93744751 2.22893062 -10.83091226 -4.38211821 0 0 Z " fill="#4BB24F" transform="translate(349.2109375,294.89453125)"/>
<path d="M0 0 C6.23307302 3.22042106 10.82067962 7.4929781 13.53125 14.0859375 C14.43176326 21.41569656 14.11064348 28.08719985 9.53125 34.0859375 C4.7387962 39.17366097 0.23586072 42.09946745 -6.84375 42.3984375 C-11.37400745 42.29995364 -14.4944131 41.23870332 -18.46875 39.0859375 C-18.79875 38.4259375 -19.12875 37.7659375 -19.46875 37.0859375 C-18.7265625 35.24609375 -18.7265625 35.24609375 -17.59375 33.1484375 C-14.20628395 26.81174402 -13.77232549 21.22202763 -14.46875 14.0859375 C-15.31631494 11.78751905 -16.28868371 9.87104245 -17.59375 7.8046875 C-18.46875 6.0859375 -18.46875 6.0859375 -18.46875 2.0859375 C-12.59551844 -1.62347191 -6.54068041 -2.42170762 0 0 Z " fill="#4BB24F" transform="translate(381.46875,294.9140625)"/>
<path d="M0 0 C3 1 3 1 4.6875 3.25 C6.8023668 9.29247657 7.39157922 16.30117038 5.09765625 22.3984375 C4 24.3125 4 24.3125 2 27 C-1 26 -1 26 -2.6875 23.75 C-4.8023668 17.70752343 -5.39157922 10.69882962 -3.09765625 4.6015625 C-2 2.6875 -2 2.6875 0 0 Z " fill="#50B453" transform="translate(357,302)"/>
</svg>
